<?xml version="1.0" encoding="UTF-8"?>
<svg xmlns="http://www.w3.org/2000/svg" xmlns:xlink="http://www.w3.org/1999/xlink" width="2100" height="2100" viewBox="0 0 2100 2100">
<path fill-rule="evenodd" fill="rgb(1.197815%, 1.597595%, 1.597595%)" fill-opacity="1" d="M 760.25 1013.308594 C 760.480469 1010.789062 761.28125 1008.75 761.28125 1008.75 C 761.027344 1010.339844 760.671875 1011.859375 760.25 1013.308594 C 759.878906 1017.328125 760.9375 1022.601562 768.910156 1022.910156 C 768.910156 1022.910156 767.957031 1048.761719 761.28125 1071.941406 C 754.605469 1095.109375 758.953125 1172.503906 787.429688 1190.695312 C 787.429688 1190.695312 766.917969 1206.824219 763.460938 1217.933594 C 760.003906 1229.039062 769.996094 1252.796875 769.996094 1252.796875 C 769.996094 1252.796875 789.765625 1259.515625 802.683594 1242.992188 C 815.601562 1226.46875 815.757812 1216.84375 815.757812 1216.84375 L 808.132812 1216.84375 C 808.132812 1216.84375 808.398438 1229.910156 792.878906 1238.632812 C 777.359375 1247.355469 775.445312 1242.992188 775.445312 1242.992188 C 775.445312 1242.992188 767.644531 1222.675781 781.984375 1211.394531 C 796.320312 1200.113281 798.09375 1196.605469 817.9375 1207.035156 C 837.777344 1217.46875 852.878906 1227.332031 880.039062 1228.828125 C 880.039062 1228.828125 849.226562 1311.96875 825.5625 1347.582031 L 850.621094 1360.65625 C 850.621094 1360.65625 902.152344 1274.640625 904.007812 1234.273438 L 926.886719 1236.453125 C 926.886719 1236.453125 923.503906 1259.949219 934.511719 1271.316406 C 945.523438 1282.6875 948.492188 1297.402344 953.035156 1318.164062 C 957.574219 1338.929688 968.371094 1374.300781 971.554688 1417.3125 C 974.738281 1460.324219 988.664062 1524.355469 983.539062 1542.601562 C 978.414062 1560.851562 965.238281 1584.136719 979.183594 1582.914062 C 979.515625 1612.945312 950.519531 1671.058594 947.585938 1707.117188 C 947.207031 1752.878906 957.019531 1817.707031 979.183594 1866.183594 C 1001.351562 1914.664062 1015.5 1963.929688 1010.78125 2011.089844 C 1010.78125 2011.089844 997.160156 2002.945312 997.703125 2019.804688 C 998.246094 2036.664062 988.347656 2076.363281 988.988281 2091.710938 C 989.628906 2107.0625 979.199219 2114.984375 997.703125 2116.769531 C 1016.210938 2118.554688 1054.101562 2120.683594 1071.789062 2114.589844 C 1089.480469 2108.5 1120.910156 2098.796875 1137.160156 2099.339844 C 1153.410156 2099.878906 1181.25 2103.660156 1202.53125 2091.710938 C 1202.53125 2091.710938 1242.359375 2102.414062 1270.078125 2100.429688 C 1297.789062 2098.441406 1324.160156 2101.144531 1331.089844 2075.367188 C 1338.019531 2049.59375 1316.898438 2041.519531 1295.140625 2042.683594 C 1273.371094 2043.847656 1265.800781 2023.707031 1258.089844 2016.535156 C 1250.390625 2009.367188 1260.910156 2011.179688 1252.648438 2008.910156 C 1244.390625 2006.640625 1252.769531 1995.507812 1241.75 1998.015625 C 1241.75 1998.015625 1243.570312 1990.65625 1237.390625 1990.386719 C 1231.21875 1990.117188 1218.410156 1973.722656 1214.511719 1962.0625 C 1210.621094 1950.398438 1242.449219 1964.113281 1237.390625 1982.761719 C 1237.390625 1982.761719 1240.089844 1988.191406 1243.929688 1986.03125 C 1247.769531 1983.867188 1244.640625 1974.035156 1238.480469 1964.238281 C 1232.320312 1954.445312 1220.640625 1946.785156 1213.429688 1951.164062 C 1213.429688 1951.164062 1214.898438 1942.28125 1222.140625 1940.269531 C 1229.378906 1938.261719 1230.679688 1924.785156 1209.070312 1919.570312 C 1209.070312 1919.570312 1205.960938 1908.359375 1212.339844 1885.796875 C 1218.710938 1863.230469 1297.070312 1745.796875 1326.730469 1684.238281 C 1356.398438 1622.683594 1387.878906 1591.574219 1387.738281 1564.394531 C 1387.609375 1537.210938 1369.921875 1455.417969 1369.21875 1423.847656 C 1368.53125 1392.277344 1369.671875 1367.835938 1358.328125 1367.195312 C 1358.328125 1367.195312 1335.390625 1289.1875 1301.671875 1247.347656 C 1301.671875 1247.347656 1302.851562 1204.257812 1292.960938 1179.800781 C 1292.960938 1179.800781 1292.109375 1164.167969 1290.78125 1155.828125 C 1290.78125 1155.828125 1302.191406 1136.671875 1299.488281 1108.980469 C 1296.800781 1081.289062 1279.699219 1050.449219 1267.898438 1047.96875 C 1267.898438 1047.96875 1261.070312 1032.808594 1267.898438 1018.550781 C 1274.730469 1004.300781 1298.910156 1003.96875 1314.75 989.140625 C 1337.878906 967.46875 1335.449219 916.140625 1335.449219 916.140625 C 1335.449219 916.140625 1350.28125 908.898438 1346.339844 896.53125 C 1342.410156 884.160156 1335.449219 876.921875 1335.449219 876.921875 C 1335.449219 876.921875 1337.710938 852.089844 1320.199219 845.320312 C 1320.199219 845.320312 1329.75 797.519531 1314.75 793.03125 C 1314.75 793.03125 1315.210938 754.5 1308.210938 749.449219 C 1308.210938 749.449219 1288.871094 665.03125 1235.210938 623.058594 C 1235.210938 623.058594 1201.660156 580.441406 1184.011719 555.519531 C 1184.011719 555.519531 1192.828125 524.671875 1184.011719 503.359375 C 1184.011719 503.359375 1185.101562 483.980469 1179.648438 482.519531 C 1179.648438 482.519531 1187.820312 479.300781 1188.371094 473.800781 C 1188.921875 468.308594 1176.871094 460.289062 1175.289062 449.828125 C 1173.710938 439.378906 1185.589844 436.050781 1179.648438 429.128906 C 1173.710938 422.210938 1180.738281 419.328125 1180.738281 419.328125 C 1180.738281 419.328125 1223.488281 423.46875 1231.949219 412.789062 C 1240.410156 402.109375 1213.148438 389.480469 1194.898438 389.910156 C 1176.660156 390.339844 1172.019531 391 1172.019531 391 C 1172.019531 391 1133.78125 321.21875 1066.339844 331.078125 C 985.953125 342.828125 984.628906 423.691406 984.628906 423.691406 C 984.628906 423.691406 922.046875 420.578125 898.558594 430.21875 C 875.070312 439.871094 868.941406 442.261719 856.070312 435.671875 C 843.195312 429.078125 819.390625 417.140625 789.609375 449.828125 C 759.828125 482.53125 728.597656 527.191406 728.597656 527.191406 C 728.597656 527.191406 715.183594 541.898438 722.058594 595.828125 C 728.933594 649.75 717.152344 696.820312 712.253906 684.078125 L 712.253906 689.519531 C 712.253906 689.519531 719.597656 692.46875 722.058594 681.898438 C 724.523438 671.328125 731.257812 632.300781 726.417969 589.289062 C 721.578125 546.28125 729.6875 543.53125 729.6875 543.53125 C 729.6875 543.53125 736.808594 560.601562 739.492188 583.839844 C 742.175781 607.089844 740.453125 638.871094 750.386719 629.601562 C 750.386719 629.601562 749.824219 654.011719 758.015625 651.390625 C 758.015625 651.390625 755.105469 682.988281 762.371094 678.628906 C 762.371094 678.628906 749.554688 719.519531 749.296875 736.371094 C 749.039062 753.21875 758.015625 750.539062 758.015625 750.539062 C 758.015625 750.539062 746.390625 786.191406 758.015625 785.398438 C 758.015625 785.398438 754.398438 817.78125 761.28125 815.910156 C 761.28125 815.910156 759.847656 850.730469 759.101562 860.578125 C 758.359375 870.429688 752.765625 899.140625 758.015625 904.160156 C 763.261719 909.171875 755.707031 923.210938 758.015625 941.199219 C 760.320312 959.191406 754.019531 991.511719 756.925781 1003.300781 C 759.828125 1015.089844 747.117188 1026.179688 747.117188 1026.179688 L 751.476562 1029.449219 C 751.476562 1029.449219 757.40625 1023.078125 760.25 1013.308594 Z M 1137.160156 1378.089844 C 1137.160156 1378.089844 1126.96875 1441.257812 1118.640625 1472.875 C 1110.308594 1504.492188 1122.371094 1517.046875 1125.179688 1544.78125 C 1127.980469 1572.519531 1132.941406 1574.84375 1120.820312 1575.289062 C 1108.699219 1575.730469 1094.671875 1580.734375 1094.671875 1580.734375 C 1094.671875 1580.734375 1072.839844 1616.925781 1069.609375 1648.285156 C 1066.390625 1679.644531 1074.660156 1758.898438 1076.148438 1793.1875 C 1077.628906 1827.480469 1077.238281 1929.375 1077.238281 1929.375 C 1077.238281 1929.375 1120.519531 1900.183594 1133.890625 1821.515625 C 1147.269531 1742.847656 1154.769531 1676.089844 1197.078125 1639.570312 C 1239.390625 1603.050781 1260.800781 1580.589844 1260.269531 1570.929688 C 1259.75 1561.269531 1232.308594 1570.585938 1225.410156 1560.035156 C 1218.511719 1549.484375 1216.730469 1519.445312 1207.980469 1504.472656 C 1199.21875 1489.496094 1185.640625 1465.519531 1175.289062 1445.636719 C 1164.941406 1425.753906 1153.839844 1391.484375 1137.160156 1378.089844 "/>
<path fill-rule="evenodd" fill="rgb(0%, 0%, 0%)" fill-opacity="1" d="M 590 2100 L 900 2065 L 924 2070 L 988.144531 2059.652344 L 1055.558594 2058.707031 L 1104 2030 L 1121 2055 L 1178.308594 2023.910156 L 1290.410156 2067.132812 L 1695 2100 L 590 2100 "/>
</svg>
